<?xml version="1.0" encoding="UTF-8" standalone="no"?>
<!-- Created with Inkscape (http://www.inkscape.org/) -->

<svg
   width="50.535496mm"
   height="50.535496mm"
   viewBox="0 0 50.535496 50.535496"
   version="1.1"
   id="svg5"
   inkscape:version="1.1.2 (0a00cf5339, 2022-02-04)"
   sodipodi:docname="icon.svg"
   inkscape:export-filename="/home/geon/devel/chocassye/client/public/logo512.png"
   inkscape:export-xdpi="257.3399"
   inkscape:export-ydpi="257.3399"
   xmlns:inkscape="http://www.inkscape.org/namespaces/inkscape"
   xmlns:sodipodi="http://sodipodi.sourceforge.net/DTD/sodipodi-0.dtd"
   xmlns:xlink="http://www.w3.org/1999/xlink"
   xmlns="http://www.w3.org/2000/svg"
   xmlns:svg="http://www.w3.org/2000/svg">
  <sodipodi:namedview
     id="namedview7"
     pagecolor="#ffffff"
     bordercolor="#666666"
     borderopacity="1.0"
     inkscape:pageshadow="2"
     inkscape:pageopacity="0.0"
     inkscape:pagecheckerboard="0"
     inkscape:document-units="mm"
     showgrid="false"
     inkscape:zoom="0.55945567"
     inkscape:cx="115.29064"
     inkscape:cy="39.323938"
     inkscape:window-width="2560"
     inkscape:window-height="1353"
     inkscape:window-x="1920"
     inkscape:window-y="0"
     inkscape:window-maximized="1"
     inkscape:current-layer="text1640" />
  <defs
     id="defs2">
    <linearGradient
       inkscape:collect="always"
       id="linearGradient13383">
      <stop
         style="stop-color:#ffe680;stop-opacity:1"
         offset="0"
         id="stop13379" />
      <stop
         style="stop-color:#ffffff;stop-opacity:0;"
         offset="1"
         id="stop13381" />
    </linearGradient>
    <linearGradient
       inkscape:collect="always"
       id="linearGradient11008">
      <stop
         style="stop-color:#ffe680;stop-opacity:1"
         offset="0"
         id="stop11004" />
      <stop
         style="stop-color:#ffffff;stop-opacity:0;"
         offset="1"
         id="stop11006" />
    </linearGradient>
    <linearGradient
       inkscape:collect="always"
       xlink:href="#linearGradient11008"
       id="linearGradient11010"
       x1="63.624653"
       y1="112.79893"
       x2="63.279751"
       y2="145.10828"
       gradientUnits="userSpaceOnUse"
       gradientTransform="translate(0.40472747,0.5155943)" />
    <linearGradient
       inkscape:collect="always"
       xlink:href="#linearGradient13383"
       id="linearGradient12899"
       gradientUnits="userSpaceOnUse"
       gradientTransform="matrix(1.1485653,0,0,1.1485653,-8.3419804,-17.369108)"
       x1="63.624653"
       y1="112.79893"
       x2="63.638531"
       y2="160.73503" />
  </defs>
  <g
     inkscape:label="Layer 1"
     inkscape:groupmode="layer"
     id="layer1"
     transform="translate(-37.433178,-97.802673)">
    <rect
       style="fill:#000000;stroke:none;stroke-width:2.365;stop-color:#000000"
       id="rect3394"
       width="50.535496"
       height="50.535496"
       x="37.433178"
       y="97.802673"
       ry="4.9013224" />
    <g
       aria-label="ᄎᆞᆽ"
       id="text1640"
       style="font-size:41.7421px;line-height:1.25;letter-spacing:0px;word-spacing:0px;writing-mode:tb-rl;fill:url(#linearGradient11010);stroke-width:1.04355">
      <path
         d="m 71.488743,137.77136 c -1.534194,-0.81503 -3.93137,-2.15745 -5.70528,-3.21221 0.575322,-0.57532 1.006814,-1.24653 1.342419,-1.8698 0.335604,-0.52737 0.04794,-1.05476 -0.575323,-1.19858 4.171087,-0.14384 8.054513,-0.0959 11.170843,-0.048 1.965685,0 2.44512,-1.8698 0.383547,-2.78073 -1.150644,-0.43149 -3.451934,-0.52737 -5.513505,-0.3356 -0.527379,0.0479 -0.958871,0.23972 -1.342419,0.47944 -0.527379,0.19177 -1.198588,0.23972 -2.109515,0.38355 -3.212217,0.38354 -9.924311,0.3356 -11.889995,0.3356 -2.828669,-0.0479 -4.794353,-0.19178 -6.520321,-0.3356 -2.828667,-0.23972 -3.020442,1.00681 -0.719152,2.15745 1.150644,0.52738 2.397176,1.05477 3.116329,1.24653 1.486249,0.38355 2.301289,0.14384 3.212216,-0.0959 0.623266,-0.3356 1.246533,-0.62327 2.013628,-0.67122 0.958871,-0.14383 2.253347,-0.14383 3.643709,-0.19177 0.575322,0.33561 0.527379,0.52739 0.383549,0.7671 -2.397177,4.45874 -8.246288,9.87637 -13.328302,11.89 -1.390362,0.62325 -1.294476,2.20539 1.534193,1.29446 3.979312,-1.15064 10.020198,-4.84229 13.99951,-9.10927 3.595765,2.3013 9.972255,6.52033 12.033826,7.91069 2.828668,2.20541 4.554636,0.47943 3.020443,-1.67802 -0.719153,-1.00682 -2.157459,-2.44512 -3.308104,-3.06839 -0.575323,-0.4315 -1.006814,-0.57532 -1.534193,-0.62326 -0.527379,-0.14383 -1.150645,-0.23972 -2.109515,-0.67121 z m 5.273788,-18.88975 c 3.499878,1.05476 4.986127,-0.47944 3.979313,-1.8698 -0.910927,-0.81503 -2.876612,-1.86979 -4.650523,-2.25334 -2.58895,-0.52738 -2.73278,0.23971 -3.54782,0.0959 -0.862984,-0.14383 -4.314918,-0.71915 -5.225845,-0.95887 1.342419,-0.57532 3.54782,-1.8698 5.417618,-3.06839 0.719154,-0.62327 1.438306,-0.91093 1.965685,-1.5342 1.006814,-1.10269 0.575322,-2.58894 -1.006814,-2.78072 -0.431492,-0.0479 -1.965685,-0.14382 -3.308104,-0.14382 -0.575322,0 -1.294474,0.47943 -1.438306,0.47943 -1.390362,0.23972 -9.205157,0.62326 -12.705034,0.47944 -1.773911,-0.0479 -3.547821,-0.0959 -5.034072,-0.23972 -2.924555,-0.23972 -2.73278,1.4383 -0.910926,2.20539 0.719153,0.23972 2.109515,0.81505 3.068386,1.00683 1.054757,0.23971 1.965684,0.19177 2.684837,-0.0479 1.342419,-0.38355 2.301289,-0.62327 3.11633,-0.62327 1.246532,0 8.102456,-0.28766 8.821609,-0.28766 -5.369675,4.21903 -14.095398,7.57508 -21.382814,9.34899 -1.582136,0.38354 -2.301289,2.34923 1.917741,1.58214 4.794353,-0.7671 10.835237,-2.68484 15.48576,-4.84231 3.308104,0.76711 11.458504,3.21222 12.752979,3.45194 z m -9.684594,-14.38306 c 2.541008,-0.23972 3.547822,-2.92455 -0.862982,-2.92455 -3.020443,0 -5.034071,0 -7.575078,-0.62326 -2.013628,-0.38356 -4.362861,0.47943 -2.397176,1.77391 2.253346,1.53418 3.595764,1.72596 4.794352,1.86979 1.678023,0.14383 3.595765,0.0479 6.040884,-0.0959 z m -3.356047,22.14991 c 1.678025,0 3.068387,-1.39036 3.068387,-3.06838 0,-1.67802 -1.390362,-3.06838 -3.068387,-3.06838 -1.678023,0 -3.068385,1.39036 -3.068385,3.06838 0,1.67802 1.390362,3.06838 3.068385,3.06838 z"
         style="font-family:KoPubWorldBatang_Pro;-inkscape-font-specification:KoPubWorldBatang_Pro;fill:url(#linearGradient12899);stroke-width:1.19859"
         id="path12730" />
    </g>
  </g>
</svg>
